# xmcd
#
# Track frame offsets: 
#        150
#        13694
#        26024
#        46507
#        64047
#        79265
#        93673
#        111166
#        132545
#        147426
#        162536
#        175891
#        190002
#        204492
#        220628
#        233929
#        251982
#        268928
#        282985
#        295908
#        308804
#
# Disc length: 4350 seconds
#
# Revision: 0
# Processed by: cddbd v1.5.2PL0 Copyright (c) Steve Scherf et al.
# Submitted via: ExactAudioCopy v1.3
#
DISCID=4010fc15
DTITLE=Various Artist - Misc. Country 2
DYEAR=1900
DGENRE=Country
TTITLE0=Chris LeDoux - Big Love
TTITLE1=Chris LeDoux - Dallas Days And Fort Worth Nights
TTITLE2=Clarence Carter - Strokin'
TTITLE3=David Frizell - I'm Gonna Hire A Wino To Decorate Our Home
TTITLE4=Deana Carter - Count Me In
TTITLE5=Deana Carter - Did I Shave My Legs For This?
TTITLE6=Deana Carter - How Do I Get There
TTITLE7=Deana Carter - Strawberry Wine
TTITLE8=Deana Carter - We Dance Anyway
TTITLE9=Desert Rose Band - One Step Forward
TTITLE10=Desert Rose Band (with Emmy Lou Harris) - Price I Pay
TTITLE11=Don Williams - Back In My Younger Days
TTITLE12=Don Williams - It's Who You Love
TTITLE13=Don Williams - Standing Knee Deep In A River (Dying Of Thirst
TTITLE13=)
TTITLE14=John Anderson - Swingin'
TTITLE15=Reba McEntire - What If
TTITLE16=Suzy Bogguss - Aces
TTITLE17=Suzy Bogguss - Drive South
TTITLE18=Suzy Bogguss - I Want To Be A Cowboy's Sweetheart
TTITLE19=Suzy Bogguss - Outbound Plane
TTITLE20=Suzy Bogguss - Someday Soon
EXTD=
EXTT0=
EXTT1=
EXTT2=
EXTT3=
EXTT4=
EXTT5=
EXTT6=
EXTT7=
EXTT8=
EXTT9=
EXTT10=
EXTT11=
EXTT12=
EXTT13=
EXTT14=
EXTT15=
EXTT16=
EXTT17=
EXTT18=
EXTT19=
EXTT20=
PLAYORDER=
